<svg width="382" height="517" viewBox="0 0 382 517" fill="none" xmlns="http://www.w3.org/2000/svg" xmlns:xlink="http://www.w3.org/1999/xlink">
<rect width="227.621" height="466.767" transform="matrix(-0.942761 0.333469 0.333501 0.94275 225.496 0.24762)" fill="url(#pattern0)"/>
<rect width="205.648" height="418.512" rx="9" transform="matrix(-0.93972 0.341946 0.341976 0.939709 226.375 39.8129)" fill="black"/>
<path d="M273.692 178.899C274.907 180.504 275.288 182.442 275.278 184.425C275.295 186.643 275.234 188.87 275.173 191.097C275.102 195.307 275.031 199.517 274.951 203.649C273.199 202.899 271.448 202.148 269.697 201.398C272.503 198.222 275.31 195.045 278.107 191.79C279.372 190.376 280.706 188.875 281.883 187.392C282.377 186.86 282.991 185.996 283.259 185.569C283.199 185.735 283.458 185.229 283.458 185.229C283.519 185.064 283.657 184.889 283.708 184.645C283.769 184.48 283.898 184.227 283.958 184.062C283.949 183.983 284.199 183.4 284.079 183.731C284.507 181.937 286.338 180.617 288.185 181.515C295.139 184.759 302.093 188.003 309.125 191.238C307.842 192.495 306.481 193.761 305.199 195.019C301.843 188.586 297.957 182.373 293.698 176.362C292.946 175.338 292.923 173.755 293.763 172.787C298.735 167.062 303.628 161.347 306.551 154.351C307.808 155.634 309.074 156.994 310.332 158.277C303.212 161.87 295.54 164.1 287.708 165.634C286.152 165.892 284.572 164.567 284.48 163.072C284.369 161.419 285.408 160.111 287.042 159.844C294.257 158.46 301.382 156.293 308.128 152.901C309.179 152.384 310.572 152.779 311.297 153.568C312.109 154.426 312.332 155.669 311.91 156.827C308.797 164.241 303.567 170.471 298.396 176.535C298.418 175.344 298.439 174.152 298.461 172.96C303 179.336 307.018 186.01 310.671 192.963C311.188 194.013 310.715 195.415 310.005 196.131C309.147 196.944 307.834 197.253 306.745 196.744C299.791 193.5 292.837 190.256 285.805 187.021C287.151 186.311 288.566 185.514 289.911 184.805C288.874 188.888 285.971 191.917 283.234 195.006C280.289 198.358 277.275 201.796 274.33 205.147C273.49 206.116 272.117 206.591 270.862 206.021C269.529 205.461 269.142 204.158 269.154 202.888C269.192 199.078 269.308 195.259 269.346 191.449C269.365 189.544 269.393 187.718 269.49 185.804C269.514 185.325 269.512 184.612 269.431 183.908C269.404 183.673 269.386 183.517 269.359 183.282C269.314 182.891 269.314 182.891 269.341 183.125C269.236 182.9 269.218 182.743 269.121 182.596C269.227 182.821 269.227 182.821 269.025 182.448C268.09 181.208 268.343 179.276 269.584 178.341C270.824 177.405 272.756 177.659 273.692 178.899Z" fill="#EB5F8E"/>
<path d="M285.583 165.085C280.195 159.6 275.596 153.39 272.039 146.584C273.917 146.368 275.795 146.152 277.674 145.937C276.732 152.229 276.268 158.545 276.527 164.937C276.593 166.198 275.954 167.54 274.738 167.997C267.833 170.693 261.005 173.381 254.1 176.077C254.128 174.25 254.156 172.424 254.193 170.675C257.59 171.95 260.978 173.146 264.376 174.42C267.599 175.556 271.342 176.394 273.71 179.056C274.802 180.278 274.322 182.315 273.151 183.163C271.763 184.195 270.126 183.749 269.043 182.605C269.401 182.96 268.441 182.198 268.694 182.328C268.781 182.397 268.189 182.069 268.023 182.008C267.352 181.689 266.612 181.457 265.872 181.225C264.304 180.692 262.805 180.071 261.237 179.538C258.093 178.393 254.948 177.248 251.804 176.103C249.399 175.19 249.621 171.597 251.896 170.701C258.802 168.005 265.629 165.318 272.534 162.621C271.938 163.641 271.342 164.661 270.745 165.681C270.511 158.81 270.833 151.955 271.868 145.097C272.046 143.888 273.182 142.727 274.443 142.661C275.86 142.577 276.889 143.252 277.503 144.45C280.456 150.136 284.775 155.982 289.263 160.54C290.346 161.684 290.848 163.291 289.74 164.687C288.83 165.743 286.666 166.229 285.583 165.085Z" fill="#EB5F8E"/>
<path d="M261.302 237.109C261.724 238.488 261.503 239.886 261.008 241.218C260.473 242.714 259.883 244.197 259.294 245.68C258.209 248.494 257.124 251.309 256.052 254.069C255.059 253.133 254.066 252.197 253.072 251.261C255.743 249.815 258.413 248.37 261.097 246.869C262.296 246.229 263.563 245.548 264.72 244.84C265.184 244.604 265.81 244.174 266.095 243.953C266.014 244.049 266.313 243.773 266.313 243.773C266.394 243.677 266.53 243.593 266.625 243.442C266.706 243.346 266.855 243.208 266.937 243.111C266.95 243.056 267.262 242.725 267.099 242.918C267.829 241.817 269.386 241.38 270.407 242.439C274.286 246.334 278.165 250.229 282.099 254.137C280.927 254.667 279.699 255.184 278.527 255.714C277.853 250.56 276.77 245.423 275.385 240.33C275.132 239.457 275.506 238.386 276.31 237.941C281.064 235.315 285.764 232.675 289.453 228.689C289.983 229.861 290.5 231.089 291.03 232.261C285.355 232.925 279.644 232.535 273.998 231.638C272.887 231.428 272.151 230.148 272.457 229.119C272.79 227.98 273.811 227.356 274.976 227.579C280.171 228.425 285.498 228.722 290.871 228.102C291.706 228.013 292.546 228.622 292.839 229.331C293.174 230.108 293.017 230.999 292.448 231.674C288.528 235.895 283.475 238.798 278.503 241.604C278.811 240.808 279.119 240.011 279.427 239.215C280.91 244.622 281.969 250.101 282.715 255.679C282.804 256.513 282.14 257.339 281.486 257.646C280.708 257.981 279.749 257.866 279.142 257.255C275.263 253.36 271.384 249.465 267.45 245.556C268.53 245.411 269.678 245.223 270.758 245.077C269.055 247.568 266.356 248.891 263.754 250.295C260.947 251.824 258.072 253.395 255.266 254.924C254.462 255.369 253.422 255.35 252.718 254.658C251.959 253.953 252.019 252.981 252.34 252.129C253.304 249.576 254.323 247.035 255.287 244.482C255.769 243.205 256.238 241.983 256.774 240.719C256.909 240.403 257.082 239.923 257.201 239.429C257.241 239.265 257.268 239.155 257.307 238.991C257.373 238.716 257.373 238.716 257.334 238.881C257.318 238.703 257.345 238.593 257.317 238.47C257.332 238.648 257.332 238.648 257.288 238.347C256.964 237.283 257.611 236.046 258.676 235.722C259.74 235.398 260.978 236.045 261.302 237.109Z" fill="#EB5F8E"/>
<path d="M272.704 230.746C270.43 225.728 268.866 220.418 268.149 214.963C269.466 215.281 270.783 215.598 272.099 215.915C269.916 219.916 268.048 224.051 266.648 228.415C266.382 229.28 265.621 230.025 264.691 230.033C259.381 230.146 254.126 230.272 248.817 230.385C249.286 229.163 249.754 227.941 250.21 226.774C252.181 228.468 254.166 230.108 256.138 231.802C258.026 233.36 260.338 234.846 261.275 237.219C261.709 238.31 260.884 239.563 259.887 239.845C258.7 240.197 257.708 239.493 257.262 238.457C257.415 238.784 256.957 238.035 257.095 238.185C257.137 238.253 256.819 237.886 256.722 237.805C256.349 237.425 255.909 237.086 255.468 236.748C254.544 236.003 253.689 235.216 252.766 234.471C250.932 232.927 249.099 231.382 247.266 229.837C245.873 228.631 246.907 226.268 248.658 226.226C253.968 226.113 259.223 225.987 264.532 225.874C263.88 226.413 263.228 226.952 262.575 227.491C264.11 222.812 266.015 218.279 268.4 213.921C268.818 213.151 269.868 212.65 270.732 212.916C271.707 213.209 272.233 213.916 272.35 214.873C272.936 219.426 274.402 224.422 276.299 228.594C276.746 229.63 276.687 230.835 275.598 231.501C274.726 231.988 273.15 231.782 272.704 230.746Z" fill="#EB5F8E"/>
<path d="M231.083 154.315C232.018 155.141 232.486 156.272 232.723 157.478C233.004 158.824 233.239 160.184 233.474 161.545C233.946 164.111 234.417 166.678 234.873 169.198C233.718 168.956 232.562 168.715 231.406 168.473C232.723 166.2 234.04 163.927 235.342 161.607C235.937 160.594 236.564 159.519 237.098 158.474C237.333 158.09 237.601 157.49 237.712 157.198C237.695 157.306 237.791 156.967 237.791 156.967C237.807 156.859 237.87 156.736 237.871 156.582C237.888 156.474 237.936 156.305 237.952 156.197C237.937 156.15 238.017 155.765 237.985 155.981C238.026 154.839 238.976 153.813 240.209 154.133C244.83 155.254 249.451 156.374 254.119 157.48C253.493 158.401 252.821 159.337 252.196 160.257C249.371 156.76 246.25 153.46 242.928 150.328C242.346 149.798 242.139 148.839 242.531 148.148C244.851 144.063 247.126 139.992 248.046 135.385C248.967 136.01 249.903 136.682 250.823 137.307C246.937 140.361 242.548 142.653 237.977 144.543C237.064 144.89 235.942 144.278 235.703 143.381C235.434 142.39 235.905 141.468 236.865 141.106C241.079 139.383 245.143 137.196 248.827 134.311C249.403 133.868 250.297 133.938 250.834 134.328C251.433 134.75 251.719 135.478 251.605 136.234C250.62 141.118 248.204 145.543 245.804 149.859C245.671 149.133 245.539 148.406 245.406 147.679C248.943 150.998 252.2 154.562 255.269 158.339C255.712 158.914 255.596 159.824 255.252 160.346C254.83 160.944 254.07 161.293 253.346 161.117C248.725 159.996 244.103 158.875 239.435 157.769C240.166 157.173 240.929 156.516 241.659 155.92C241.528 158.528 240.135 160.723 238.85 162.935C237.47 165.331 236.059 167.788 234.679 170.184C234.287 170.875 233.511 171.332 232.68 171.139C231.801 170.962 231.406 170.217 231.259 169.444C230.816 167.125 230.42 164.79 229.977 162.471C229.756 161.312 229.55 160.198 229.375 159.024C229.331 158.73 229.242 158.297 229.107 157.879C229.062 157.74 229.032 157.647 228.987 157.508C228.911 157.275 228.911 157.275 228.957 157.415C228.865 157.29 228.835 157.198 228.758 157.12C228.85 157.244 228.85 157.244 228.682 157.042C227.962 156.403 227.88 155.198 228.519 154.478C229.159 153.758 230.363 153.676 231.083 154.315Z" fill="#EB5F8E"/>
<path d="M236.621 144.469C232.677 141.795 229.124 138.584 226.13 134.884C227.245 134.524 228.36 134.163 229.475 133.802C229.671 137.74 230.162 141.634 231.101 145.486C231.295 146.244 231.071 147.137 230.388 147.564C226.522 150.046 222.702 152.513 218.837 154.995C218.63 153.882 218.424 152.769 218.233 151.702C220.453 152.061 222.657 152.374 224.877 152.733C226.974 153.029 229.351 153.081 231.115 154.408C231.927 155.017 231.885 156.313 231.277 156.972C230.56 157.768 229.511 157.697 228.713 157.135C228.974 157.307 228.298 156.961 228.467 157.009C228.529 157.041 228.128 156.914 228.021 156.897C227.574 156.785 227.096 156.735 226.618 156.684C225.6 156.552 224.614 156.358 223.596 156.226C221.546 155.914 219.495 155.603 217.445 155.292C215.872 155.031 215.568 152.821 216.841 151.999C220.707 149.516 224.526 147.049 228.392 144.567C228.154 145.26 227.916 145.952 227.679 146.645C226.696 142.499 226.054 138.295 225.845 134.002C225.805 133.245 226.353 132.401 227.111 132.207C227.962 131.983 228.67 132.267 229.189 132.92C231.678 136.013 235.017 139.037 238.301 141.258C239.099 141.82 239.6 142.735 239.097 143.719C238.674 144.472 237.418 145.032 236.621 144.469Z" fill="#EB5F8E"/>
<g clip-path="url(#clip0)">
<path d="M15.7751 130.739C14.5482 137.989 13.6761 145.284 14.3126 152.714C15.0351 160.319 18.0795 167.225 23.4132 172.684C25.9045 175.281 28.754 177.703 31.1091 180.476C31.4138 180.872 31.8081 181.225 32.0232 181.665C31.8511 181.313 32.371 182.149 32.1093 181.84C32.1523 181.928 32.1453 182.368 32.1523 181.928C32.1163 181.401 32.1523 181.928 32.1523 181.928C32.0987 182.5 32.4281 181.358 32.1488 182.148C32.1023 182.28 31.78 182.983 32.0092 182.544C32.328 182.061 31.9161 182.807 31.8695 182.939C31.5508 183.422 31.1424 183.949 30.8236 184.432C28.9611 186.978 27.3601 189.832 28.0204 192.998C28.8888 197.043 32.4084 199.247 35.4371 201.581C35.9639 201.978 36.6199 202.638 37.2758 203.299C37.5806 203.695 37.8853 204.091 38.1469 204.399C38.233 204.575 38.8424 205.367 38.7133 205.103C39.753 206.775 40.6136 208.535 41.4741 210.294C43.2777 214.209 45.0383 218.036 47.6481 221.557C48.8669 223.141 51.4899 223.057 52.8871 221.829C54.5099 220.381 54.4555 218.227 53.2367 216.643C51.541 214.311 49.9095 210.748 48.5792 207.8C47.0768 204.501 45.3522 201.202 42.8644 198.385C41.6421 197.02 40.1941 195.875 38.746 194.73C38.0435 194.201 37.3841 193.761 36.6816 193.232C35.7604 192.483 36.9863 193.628 36.1547 192.836C36.1116 192.748 35.151 191.691 35.4987 192.175C35.4987 192.175 34.8498 191.075 35.194 191.779C34.6742 190.943 35.5918 191.912 35.1115 191.383C35.0684 191.295 35.115 191.164 35.115 191.164C35.0184 191.647 34.9288 191.691 35.0684 191.295C35.3837 191.032 35.4302 190.901 35.4768 190.769C35.713 189.89 35.1115 191.383 35.5233 190.637C35.6164 190.373 35.8421 190.154 35.9352 189.89C36.3005 189.276 36.7089 188.749 37.1172 188.222C38.8007 185.763 40.2224 182.997 39.426 180.006C38.3749 176.269 34.7799 173.23 32.0665 170.632C30.7976 169.399 29.5287 168.167 28.3494 166.89C27.3457 165.745 26.0373 164.205 25.4744 163.281C23.6137 160.157 22.7637 157.738 22.1965 154.309C21.5468 150.484 21.5565 147.099 21.7989 143.056C22.0844 139.101 22.6816 135.102 23.2788 131.103C23.6222 129.082 21.7404 127.276 19.92 127.185C17.6553 127.094 16.1185 128.718 15.7751 130.739Z" fill="#35ADCE"/>
</g>
<defs>
<pattern id="pattern0" patternContentUnits="objectBoundingBox" width="1" height="1">
<use xlink:href="#image0" transform="scale(0.00242131 0.00118064)"/>
</pattern>
<clipPath id="clip0">
<rect width="23.6313" height="100.189" fill="white" transform="matrix(0.898317 -0.439348 0.439336 0.898323 0 136.382)"/>
</clipPath>
<image id="image0" width="413" height="847" xlink:href="phone.png"/>
</defs>
</svg>
