<svg xmlns="http://www.w3.org/2000/svg" viewBox="0 0 168.75 224.28"><path d="M127.5,0H135c5.5,1.46,11.17,2.46,16.45,4.49,8.22,3.16,13.9,9.06,16.16,17.8.4,1.54.76,3.08,1.14,4.62v6.73a9.43,9.43,0,0,0-.6,1.74c-2.51,15.5-13.18,26.55-28.43,29.3-2.4.43-4.87.51-7.54.77,0,6.61,0,12.94,0,19.27,0,5.47-1.43,11.65.66,16.2s7.76,7.48,11.87,11.11c2,1.77,4,3.51,6.37,5.56-6,4.87-11.34,9.36-16.87,13.59a7.27,7.27,0,0,0-3.23,6.53c.17,13.7.08,27.39.08,41.09V183c1.41-.87,2.25-1.33,3-1.88a81.2,81.2,0,0,0,27.09-32.28,16.9,16.9,0,0,1,2.67-3.25l.95.67c0,1.48.09,3,0,4.43-2.69,38.47-31.52,68.58-69.93,73.05-43.33,5-83.6-23.71-92.7-66.23-.93-4.36-1.45-8.8-2.16-13.21v-6.73a20.6,20.6,0,0,0,.66-2.85c3.28-36,30.26-67.82,65.61-77.2,1.08-.29,2.37.2,3.57.33-.65,1-1.08,2.25-2,2.85A81.61,81.61,0,0,0,40.94,90.24c-.48.91-.84,1.89-1.57,3.55L99.2,67.64a7.21,7.21,0,0,1,.37,1.3c0,26.9.06,53.8-.07,80.71,0,1.17-1.35,2.83-2.5,3.43-6.2,3.22-12.53,6.17-18.82,9.23L50.26,175.9a7.66,7.66,0,0,0,.69,1.17c19.77,21.58,54.53,22.35,74.11,12a5.36,5.36,0,0,0,2.2-4c.16-13.57-.23-27.16.24-40.72.21-5.93-1.35-10-6.23-13.48-4.43-3.12-8.3-7-12.71-10.84,1.33-1.24,2.19-2.1,3.11-2.89,4.52-3.93,9.11-7.79,13.56-11.79.93-.83,2-2.14,2-3.25.15-11.81.09-23.62.09-35.64-1.46-.27-2.67-.52-3.88-.73a377,377,0,0,1-48-11.39c-12.22-3.78-24.95-6-37.54-8.44-6.62-1.28-13.15,2.81-15.85,8.84-2.53,5.66-1.13,10.33,4.48,15.49.54.49.57,1.55.83,2.35-.87,0-1.9.34-2.6,0C14.88,67.69,9.32,59.74,8.81,48.71c-.83-18,11.69-34.35,29.31-39,8.26-2.21,16.49-1.43,24.48.51,12.22,3,24.15,7.08,36.35,10.16,11.22,2.84,22.56,5.37,34,7.25,6.86,1.13,12.55-3.94,13.58-10.57.89-5.72-2.62-10.31-9.64-12.15-3-.79-6.11-1.06-9.36-1.6ZM63.61,88.4c-7.18,3.07-14.56,6.07-21.78,9.41a7.31,7.31,0,0,0-3.55,4.12,91.66,91.66,0,0,0-2.14,37.4,67.59,67.59,0,0,0,12.57,30.55c4-2,7.74-3.94,11.59-5.66a4.26,4.26,0,0,0,2.91-4.5c0-7.22.35-14.44.38-21.66C63.66,121.62,63.61,105.19,63.61,88.4Z" style="fill:#000"/></svg>