  <svg width="382" height="517" fill="none" xmlns="http://www.w3.org/2000/svg" xmlns:xlink="http://www.w3.org/1999/xlink"><path transform="matrix(-.94276 .33347 .3335 .94275 225.496 .248)" fill="url(#pattern0)" d="M0 0h227.621v466.767H0z"/><rect width="205.648" height="418.512" rx="9" transform="matrix(-.93972 .34195 .34198 .9397 226.375 39.813)" fill="#000"/><path d="M273.692 178.899c1.215 1.605 1.596 3.543 1.586 5.526.017 2.218-.044 4.445-.105 6.672-.071 4.21-.142 8.42-.222 12.552l-5.254-2.251c2.806-3.176 5.613-6.353 8.41-9.608 1.265-1.414 2.599-2.915 3.776-4.398.494-.532 1.108-1.396 1.376-1.823-.06.166.199-.34.199-.34.061-.165.199-.34.25-.584.061-.165.19-.418.25-.583-.009-.079.241-.662.121-.331.428-1.794 2.259-3.114 4.106-2.216 6.954 3.244 13.908 6.488 20.94 9.723-1.283 1.257-2.644 2.523-3.926 3.781-3.356-6.433-7.242-12.646-11.501-18.657-.752-1.024-.775-2.607.065-3.575 4.972-5.725 9.865-11.44 12.788-18.436 1.257 1.283 2.523 2.643 3.781 3.926-7.12 3.593-14.792 5.823-22.624 7.357-1.556.258-3.136-1.067-3.228-2.562-.111-1.653.928-2.961 2.562-3.228 7.215-1.384 14.34-3.551 21.086-6.943 1.051-.517 2.444-.122 3.169.667.812.858 1.035 2.101.613 3.259-3.113 7.414-8.343 13.644-13.514 19.708l.065-3.575c4.539 6.376 8.557 13.05 12.21 20.003.517 1.05.044 2.452-.666 3.168-.858.813-2.171 1.122-3.26.613-6.954-3.244-13.908-6.488-20.94-9.723 1.346-.71 2.761-1.507 4.106-2.216-1.037 4.083-3.94 7.112-6.677 10.201-2.945 3.352-5.959 6.79-8.904 10.141-.84.969-2.213 1.444-3.468.874-1.333-.56-1.72-1.863-1.708-3.133.038-3.81.154-7.629.192-11.439.019-1.905.047-3.731.144-5.645.024-.479.022-1.192-.059-1.896l-.072-.626-.018-.157c-.105-.225-.123-.382-.22-.529.106.225.106.225-.096-.148-.935-1.24-.682-3.172.559-4.107 1.24-.936 3.172-.682 4.108.558z" fill="#EB5F8E"/><path d="M285.583 165.085c-5.388-5.485-9.987-11.695-13.544-18.501l5.635-.647c-.942 6.292-1.406 12.608-1.147 19 .066 1.261-.573 2.603-1.789 3.06-6.905 2.696-13.733 5.384-20.638 8.08.028-1.827.056-3.653.093-5.402 3.397 1.275 6.785 2.471 10.183 3.745 3.223 1.136 6.966 1.974 9.334 4.636 1.092 1.222.612 3.259-.559 4.107-1.388 1.032-3.025.586-4.108-.558.358.355-.602-.407-.349-.277.087.069-.505-.259-.671-.32-.671-.319-1.411-.551-2.151-.783-1.568-.533-3.067-1.154-4.635-1.687l-9.433-3.435c-2.405-.913-2.183-4.506.092-5.402 6.906-2.696 13.733-5.383 20.638-8.08l-1.789 3.06c-.234-6.871.088-13.726 1.123-20.584.178-1.209 1.314-2.37 2.575-2.436 1.417-.084 2.446.591 3.06 1.789 2.953 5.686 7.272 11.532 11.76 16.09 1.083 1.144 1.585 2.751.477 4.147-.91 1.056-3.074 1.542-4.157.398zM261.302 237.109c.422 1.379.201 2.777-.294 4.109-.535 1.496-1.125 2.979-1.714 4.462-1.085 2.814-2.17 5.629-3.242 8.389l-2.98-2.808c2.671-1.446 5.341-2.891 8.025-4.392 1.199-.64 2.466-1.321 3.623-2.029a10.53 10.53 0 001.375-.887c-.081.096.218-.18.218-.18.081-.096.217-.18.312-.331.081-.096.23-.234.312-.331.013-.055.325-.386.162-.193.73-1.101 2.287-1.538 3.308-.479 3.879 3.895 7.758 7.79 11.692 11.698-1.172.53-2.4 1.047-3.572 1.577-.674-5.154-1.757-10.291-3.142-15.384-.253-.873.121-1.944.925-2.389 4.754-2.626 9.454-5.266 13.143-9.252.53 1.172 1.047 2.4 1.577 3.572-5.675.664-11.386.274-17.032-.623-1.111-.21-1.847-1.49-1.541-2.519.333-1.139 1.354-1.763 2.519-1.54 5.195.846 10.522 1.143 15.895.523.835-.089 1.675.52 1.968 1.229.335.777.178 1.668-.391 2.343-3.92 4.221-8.973 7.124-13.945 9.93l.924-2.389c1.483 5.407 2.542 10.886 3.288 16.464.089.834-.575 1.66-1.229 1.967-.778.335-1.737.22-2.344-.391-3.879-3.895-7.758-7.79-11.692-11.699 1.08-.145 2.228-.333 3.308-.479-1.703 2.491-4.402 3.814-7.004 5.218-2.807 1.529-5.682 3.1-8.488 4.629-.804.445-1.844.426-2.548-.266-.759-.705-.699-1.677-.378-2.529.964-2.553 1.983-5.094 2.947-7.647a99.233 99.233 0 011.487-3.763c.135-.316.308-.796.427-1.29l.106-.438c.066-.275.066-.275.027-.11-.016-.178.011-.288-.017-.411.015.178.015.178-.029-.123-.324-1.064.323-2.301 1.388-2.625 1.064-.324 2.302.323 2.626 1.387z" fill="#EB5F8E"/><path d="M272.704 230.746c-2.274-5.018-3.838-10.328-4.555-15.783l3.95.952c-2.183 4.001-4.051 8.136-5.451 12.5-.266.865-1.027 1.61-1.957 1.618-5.31.113-10.565.239-15.874.352.469-1.222.937-2.444 1.393-3.611 1.971 1.694 3.956 3.334 5.928 5.028 1.888 1.558 4.2 3.044 5.137 5.417.434 1.091-.391 2.344-1.388 2.626-1.187.352-2.179-.352-2.625-1.388.153.327-.305-.422-.167-.272.042.068-.276-.299-.373-.38-.373-.38-.813-.719-1.254-1.057-.924-.745-1.779-1.532-2.702-2.277l-5.5-4.634c-1.393-1.206-.359-3.569 1.392-3.611 5.31-.113 10.565-.239 15.874-.352l-1.957 1.617c1.535-4.679 3.44-9.212 5.825-13.57.418-.77 1.468-1.271 2.332-1.005.975.293 1.501 1 1.618 1.957.586 4.553 2.052 9.549 3.949 13.721.447 1.036.388 2.241-.701 2.907-.872.487-2.448.281-2.894-.755zM231.083 154.315c.935.826 1.403 1.957 1.64 3.163.281 1.346.516 2.706.751 4.067.472 2.566.943 5.133 1.399 7.653l-3.467-.725a573.76 573.76 0 003.936-6.866c.595-1.013 1.222-2.088 1.756-3.133.235-.384.503-.984.614-1.276-.017.108.079-.231.079-.231.016-.108.079-.231.08-.385.017-.108.065-.277.081-.385-.015-.047.065-.432.033-.216.041-1.142.991-2.168 2.224-1.848a2667.42 2667.42 0 0013.91 3.347c-.626.921-1.298 1.857-1.923 2.777-2.825-3.497-5.946-6.797-9.268-9.929-.582-.53-.789-1.489-.397-2.18 2.32-4.085 4.595-8.156 5.515-12.763.921.625 1.857 1.297 2.777 1.922-3.886 3.054-8.275 5.346-12.846 7.236-.913.347-2.035-.265-2.274-1.162-.269-.991.202-1.913 1.162-2.275 4.214-1.723 8.278-3.91 11.962-6.795.576-.443 1.47-.373 2.007.017.599.422.885 1.15.771 1.906-.985 4.884-3.401 9.309-5.801 13.625l-.398-2.18c3.537 3.319 6.794 6.883 9.863 10.66.443.575.327 1.485-.017 2.007-.422.598-1.182.947-1.906.771a2667.644 2667.644 0 00-13.911-3.348c.731-.596 1.494-1.253 2.224-1.849-.131 2.608-1.524 4.803-2.809 7.015-1.38 2.396-2.791 4.853-4.171 7.249-.392.691-1.168 1.148-1.999.955-.879-.177-1.274-.922-1.421-1.695-.443-2.319-.839-4.654-1.282-6.973a85.225 85.225 0 01-.602-3.447 7.588 7.588 0 00-.268-1.145l-.12-.371-.03-.093c-.092-.125-.122-.217-.199-.295.092.124.092.124-.076-.078-.72-.639-.802-1.844-.163-2.564.64-.72 1.844-.802 2.564-.163z" fill="#EB5F8E"/><path d="M236.621 144.469c-3.944-2.674-7.497-5.885-10.491-9.585l3.345-1.082c.196 3.938.687 7.832 1.626 11.684.194.758-.03 1.651-.713 2.078-3.866 2.482-7.686 4.949-11.551 7.431a502.217 502.217 0 01-.604-3.293c2.22.359 4.424.672 6.644 1.031 2.097.296 4.474.348 6.238 1.675.812.609.77 1.905.162 2.564-.717.796-1.766.725-2.564.163.261.172-.415-.174-.246-.126.062.032-.339-.095-.446-.112-.447-.112-.925-.162-1.403-.213-1.018-.132-2.004-.326-3.022-.458l-6.151-.934c-1.573-.261-1.877-2.471-.604-3.293 3.866-2.483 7.685-4.95 11.551-7.432l-.713 2.078c-.983-4.146-1.625-8.35-1.834-12.643-.04-.757.508-1.601 1.266-1.795.851-.224 1.559.06 2.078.713 2.489 3.093 5.828 6.117 9.112 8.338.798.562 1.299 1.477.796 2.461-.423.753-1.679 1.313-2.476.75z" fill="#EB5F8E"/><g clip-path="url(#clip0)"><path d="M15.775 130.739c-1.227 7.25-2.099 14.545-1.462 21.975.722 7.605 3.766 14.511 9.1 19.97 2.491 2.597 5.341 5.019 7.696 7.792.305.396.7.749.914 1.189-.172-.352.348.484.086.175.043.088.036.528.043.088-.036-.527 0 0 0 0-.053.572.276-.57-.003.22-.047.132-.369.835-.14.396.319-.483-.093.263-.14.395-.318.483-.727 1.01-1.045 1.493-1.863 2.546-3.464 5.4-2.804 8.566.869 4.045 4.388 6.249 7.417 8.583.527.397 1.183 1.057 1.839 1.718.305.396.61.792.87 1.1.087.176.696.968.567.704 1.04 1.672 1.9 3.432 2.761 5.191 1.804 3.915 3.564 7.742 6.174 11.263 1.219 1.584 3.842 1.5 5.24.272 1.622-1.448 1.568-3.602.349-5.186-1.696-2.332-3.328-5.895-4.658-8.843-1.502-3.299-3.227-6.598-5.715-9.415-1.222-1.365-2.67-2.51-4.118-3.655-.703-.529-1.362-.969-2.064-1.498-.922-.749.304.396-.527-.396-.043-.088-1.004-1.145-.656-.661 0 0-.65-1.1-.305-.396-.52-.836.398.133-.083-.396-.043-.088.004-.219.004-.219-.097.483-.186.527-.047.131.316-.263.362-.394.409-.526.236-.879-.365.614.046-.132.093-.264.32-.483.412-.747.365-.614.774-1.141 1.182-1.668 1.684-2.459 3.105-5.225 2.309-8.216-1.051-3.737-4.646-6.776-7.36-9.374-1.268-1.233-2.537-2.465-3.717-3.742-1.003-1.145-2.312-2.685-2.875-3.609-1.86-3.124-2.71-5.543-3.277-8.972-.65-3.825-.64-7.21-.398-11.253.285-3.955.883-7.954 1.48-11.953.343-2.021-1.539-3.827-3.359-3.918-2.265-.091-3.802 1.533-4.145 3.554z" fill="#35ADCE"/></g></svg>